<svg width="16" height="18" viewBox="0 0 16 18" fill="none" xmlns="http://www.w3.org/2000/svg">
<g id="Lock">
<path id="Lock_2" fill-rule="evenodd" clip-rule="evenodd" d="M12.6023 5.16342V6.4412C14.0376 6.88921 15.0834 8.18853 15.0834 9.74042V13.8545C15.0834 15.7757 13.4906 17.3334 11.5269 17.3334H4.47408C2.50955 17.3334 0.916748 15.7757 0.916748 13.8545V9.74042C0.916748 8.18853 1.96337 6.88921 3.39782 6.4412V5.16342C3.40629 2.67907 5.46397 0.666748 7.98738 0.666748C10.5447 0.666748 12.6023 2.67907 12.6023 5.16342ZM8.00431 2.11595C9.72328 2.11595 11.1205 3.48234 11.1205 5.16342V6.2615H4.87969V5.14686C4.88816 3.47406 6.28535 2.11595 8.00431 2.11595ZM8.74102 12.7125C8.74102 13.1183 8.41077 13.4413 7.99585 13.4413C7.58939 13.4413 7.25915 13.1183 7.25915 12.7125V10.8741C7.25915 10.4766 7.58939 10.1536 7.99585 10.1536C8.41077 10.1536 8.74102 10.4766 8.74102 10.8741V12.7125Z" fill="#9CA3AF"/>
</g>
</svg>
