<svg width="32" height="32" viewBox="0 0 32 32" fill="none" xmlns="http://www.w3.org/2000/svg">
<g id="g_logo 1">
<g id="Capa_x0020_1">
<g id="_2032110684080">
<path id="Vector" fill-rule="evenodd" clip-rule="evenodd" d="M20.9073 18.7297C20.8262 18.9553 20.6016 19.2657 20.4625 19.449C20.3663 19.5758 20.2984 19.6574 20.1972 19.7798C19.7614 20.3075 19.1621 20.7521 18.5649 21.0979C16.9321 22.0432 14.6408 22.0385 12.9258 21.0759C12.6547 20.9237 12.4541 20.7817 12.2245 20.6153C11.8118 20.3163 11.9215 20.2477 11.5396 20.6298L7.99232 24.1758C7.72602 24.4368 7.92519 24.48 8.25789 24.79C9.16091 25.6316 10.7632 26.5157 12.0303 26.9491C15.8748 28.2642 19.9867 27.4325 23.0433 25.0102C23.3852 24.7394 24.0143 24.17 24.2629 23.8751L24.8036 23.2541C25.6947 22.1391 26.4237 20.8084 26.8547 19.4035C26.9564 19.0721 27.3056 17.7876 27.2414 17.4614C27.1829 17.1642 26.3644 16.4279 26.1251 16.1925C25.7212 15.7956 25.3409 15.4237 24.9402 15.0229C24.2584 14.3412 24.4859 14.4156 23.2004 14.4156C21.6208 14.4156 20.0411 14.4156 18.4616 14.4156C18.1228 14.4156 17.6185 14.3849 17.3002 14.4152C17.0682 14.4373 17.1148 14.6142 17.2153 14.7297L20.1913 17.9544C20.4307 18.2097 20.6844 18.446 20.9073 18.7297Z" fill="#350062"/>
<path id="Vector_2" fill-rule="evenodd" clip-rule="evenodd" d="M7.58316 17.5787H14.2592C14.8273 17.5787 14.1739 17.0068 13.9718 16.8123L12.7173 15.4434C12.6714 15.3909 12.651 15.3622 12.6036 15.3182C12.5285 15.2486 12.5317 15.2613 12.4696 15.1857C12.382 15.0791 12.3264 15.0043 12.2138 14.9035L10.7052 13.2906C10.7477 13.1107 10.9909 12.7679 11.0876 12.6375C11.254 12.413 11.3586 12.2763 11.5423 12.0796C13.6007 9.87586 16.9675 9.54454 19.3497 11.3447C19.8262 11.7047 19.6667 11.7653 20.1865 11.2455L23.5992 7.8331C23.8137 7.62232 23.8988 7.62942 23.2031 7.0732C22.4078 6.43731 21.8739 6.07493 20.8805 5.58015C17.2035 3.74872 12.4709 4.13247 9.17959 6.52732C8.64322 6.91759 8.22007 7.23925 7.76974 7.71017C7.63534 7.85074 7.46012 7.98651 7.33244 8.13659C7.06741 8.44797 6.79949 8.74406 6.53716 9.10086C5.58156 10.4007 4.80172 11.9672 4.43776 13.9167C4.28935 14.7117 4.41807 14.7156 4.81872 15.1163C5.11089 15.4085 5.38332 15.6971 5.68465 15.979L6.98323 17.2733C7.13483 17.4255 7.24988 17.5787 7.58316 17.5787Z" fill="#350062"/>
</g>
</g>
</g>
</svg>
